<?xml version="1.0" encoding="UTF-8"?>
<svg width="1200pt" height="1200pt" version="1.1" viewBox="0 0 1200 1200" xmlns="http://www.w3.org/2000/svg">
 <path d="m1e3 160h160c10.609 0 20.781-4.2148 28.285-11.715 7.5-7.5039 11.715-17.676 11.715-28.285-0.03125-31.816-12.684-62.32-35.184-84.816-22.496-22.5-53-35.152-84.816-35.184h-40c-12.363 0.050781-24.414 3.9219-34.492 11.082-10.082 7.1602-17.707 17.262-21.828 28.918h-463.68c-26.512 0.03125-51.93 10.578-70.676 29.324-18.746 18.746-29.293 44.164-29.324 70.676 0.074219 21.711 7.2852 42.793 20.52 60h-200.52c-21.219 0-41.566 8.4297-56.57 23.43-15 15.004-23.43 35.352-23.43 56.57v127.2c0.035156 14.555 4.0703 28.82 11.66 41.242l-155.2 202.96c-12.148 15.883-17.906 35.738-16.145 55.656 1.7656 19.918 10.922 38.453 25.672 51.953 14.746 13.5 34.016 20.992 54.012 20.992 3.2539-0.17578 6.4922-0.54297 9.6992-1.1016 50.473 29.328 92.578 71.113 122.3 121.36 29.719 50.242 46.051 107.27 47.445 165.62-12.004 7.1914-19.375 20.129-19.441 34.121v20c0 21.219 8.4297 41.566 23.43 56.57 15.004 15 35.352 23.43 56.57 23.43h20c21.219 0 41.566-8.4297 56.57-23.43 15-15.004 23.43-35.352 23.43-56.57v-20c-0.027344-7.0977-1.9453-14.059-5.5586-20.164-3.6172-6.1055-8.793-11.137-15-14.574-1.0117-75.672-20.047-150.01-55.523-216.86-35.477-66.848-86.375-124.27-148.48-167.52l143.5-187.68 419.38 25.121-101.86 133.08c-12.477 17.004-17.887 38.176-15.102 59.078 2.7812 20.906 13.551 39.918 30.039 53.062 13.926 10.73 31.023 16.52 48.602 16.461 3.2578-0.17578 6.5039-0.54297 9.7188-1.1016 50.473 29.332 92.578 71.113 122.3 121.36 29.715 50.246 46.051 107.27 47.445 165.62-12.008 7.1875-19.391 20.125-19.461 34.121v20c0 21.219 8.4297 41.566 23.43 56.57 15.004 15 35.352 23.43 56.57 23.43h20c21.219 0 41.566-8.4297 56.57-23.43 15-15.004 23.43-35.352 23.43-56.57v-20c-0.027344-7.0977-1.9453-14.059-5.5586-20.164-3.6172-6.1055-8.793-11.137-15-14.574-1.0117-75.672-20.047-150.01-55.523-216.86-35.477-66.848-86.375-124.27-148.48-167.52l115.52-151.06 164.28 10c1.6602 0 3.3398 0.16016 5 0.16016h-0.003907c21.184-0.027344 41.492-8.4688 56.449-23.469s23.344-35.328 23.312-56.512v-180c0-21.219-8.4297-41.566-23.43-56.57-15.004-15-35.352-23.43-56.57-23.43h-282.24c-2.8789-14.488-8.9453-28.148-17.762-40zm40-120h40c21.219 0 41.566 8.4297 56.57 23.43 15 15.004 23.43 35.352 23.43 56.57h-140v-60c0-5.3047 2.1055-10.391 5.8594-14.141 3.75-3.7539 8.8359-5.8594 14.141-5.8594zm-984.3 691.76c-8.2305-6.5664-13.605-16.062-14.996-26.5s1.3086-21.012 7.5352-29.5l260-340c8.6836-11.355 22.762-17.215 36.938-15.375 14.172 1.8438 26.285 11.105 31.777 24.301s3.5273 28.32-5.1523 39.672l-260 340c-6.5898 8.2344-16.105 13.605-26.562 14.984s-21.039-1.3398-29.539-7.582zm324.3 388.24c0 10.609-4.2148 20.781-11.715 28.285-7.5039 7.5-17.676 11.715-28.285 11.715h-20c-10.609 0-20.781-4.2148-28.285-11.715-7.5-7.5039-11.715-17.676-11.715-28.285v-20h100zm-20.762-60h-60c-1.9453-59.664-18.004-118.02-46.855-170.28-28.855-52.258-69.688-96.934-119.14-130.36 3.7773-3.2617 7.2461-6.8633 10.363-10.758l27.5-36c56.41 39.09 102.83 90.902 135.52 151.25 32.684 60.348 50.711 127.54 52.621 196.14zm336.46-328.24c-8.1992-6.5898-13.547-16.082-14.938-26.504-1.3945-10.426 1.2773-20.988 7.457-29.496l260-340c8.6836-11.359 22.766-17.223 36.941-15.383 14.176 1.8398 26.293 11.102 31.789 24.301 5.4961 13.195 3.5312 28.324-5.1484 39.68l-260 340c-6.5938 8.2305-16.109 13.598-26.562 14.977-10.457 1.3789-21.039-1.3359-29.539-7.5742zm324.3 388.24c0 10.609-4.2148 20.781-11.715 28.285-7.5039 7.5-17.676 11.715-28.285 11.715h-20c-10.609 0-20.781-4.2148-28.285-11.715-7.5-7.5039-11.715-17.676-11.715-28.285v-20h100zm-20.762-60h-60c-1.9492-59.664-18.008-118.02-46.863-170.27-28.855-52.258-69.684-96.934-119.14-130.37 3.7773-3.2617 7.2461-6.8633 10.363-10.758l27.5-36c56.406 39.094 102.82 90.906 135.51 151.25 32.684 60.352 50.711 127.54 52.629 196.14zm160.76-780v180c0.046875 11.051-4.5273 21.617-12.621 29.141-7.9531 7.625-18.77 11.516-29.758 10.699l-137.46-8.3203 63.422-82.922-0.003906 0.003906c17.363-22.711 21.293-52.957 10.312-79.348-10.984-26.391-35.215-44.914-63.562-48.598s-56.504 8.0352-73.867 30.742l-128.92 168.6-419.38-25.121 35.398-46.281v0.003906c17.363-22.707 21.297-52.949 10.316-79.336-10.98-26.391-35.207-44.918-63.551-48.602-28.344-3.6836-56.5 8.0312-73.863 30.734l-76 99.52c-0.12109-1.2383-0.35938-2.4609-0.35938-3.7188v-127.2c0-10.609 4.2109-20.781 11.715-28.285 7.5-7.5 17.676-11.715 28.285-11.715h879.9c10.609 0 20.781 4.2148 28.285 11.715 7.5 7.5039 11.715 17.676 11.715 28.285zm-640-80c-21.438 0-41.242-11.438-51.961-30s-10.719-41.438 0-60 30.523-30 51.961-30h460v40h-440c-7.1445 0-13.746 3.8125-17.32 10-3.5742 6.1875-3.5742 13.812 0 20 3.5742 6.1875 10.176 10 17.32 10h200c12.363 0.050781 24.414 3.9219 34.492 11.082 10.082 7.1602 17.707 17.262 21.828 28.918z"/>
</svg>
